#!OML:ASF F:\VICON\USERDATA\INSTALL\rory3\rory3.ASF
:FULLY-SPECIFIED
:DEGREES
728
root -3.22988 18.6844 -0.553872 0.550459 8.95197 -1.9931
lowerback 10.8727 1.58111 2.25872
upperback 3.17501 2.40391 1.63404
thorax -2.75861 1.19193 0.111797
lowerneck -20.2491 -3.16856 -11.8752
upperneck 28.2038 -2.35598 6.39289
head 13.0659 -1.4359 4.1293
rclavicle -1.76918e-014 1.19271e-015
rhumerus -51.2782 9.88927 -87.7646
rradius 106.156
rwrist -3.47442
rhand -26.3918 19.3007
rfingers 7.12502
rthumb 0.167326 -10.679
lclavicle -1.76918e-014 1.19271e-015
lhumerus -38.863 -2.50329 91.0888
lradius 108.102
lwrist 21.8377
lhand -12.2305 11.7639
lfingers 7.12502
lthumb 13.8348 41.2838
rfemur -13.3331 -1.7301 22.212
rtibia 38.5074
rfoot 4.75421 -3.82652
rtoes 10.6285
lfemur -37.4129 6.49214 -17.8337
ltibia 65.7278
lfoot 20.7709 -19.1571
ltoes -12.2628
729
root -3.18562 18.7435 -0.540834 0.806537 7.89787 -1.54444
lowerback 10.6441 1.54795 1.81368
upperback 3.0745 2.3002 1.45471
thorax -2.74932 1.1406 0.1938
lowerneck -20.739 -3.06818 -11.5616
upperneck 28.2776 -2.25244 6.34697
head 13.179 -1.36127 4.07962
rclavicle -8.44835e-015 -5.96354e-015
rhumerus -51.7944 10.4548 -88.2396
rradius 106.99
rwrist -3.13927
rhand -26.3579 19.5783
rfingers 7.12502
rthumb 0.200095 -10.4013
lclavicle -8.44835e-015 -5.96354e-015
lhumerus -38.953 -2.51153 90.6457
lradius 106.021
lwrist 21.7791
lhand -12.6602 11.9359
lfingers 7.12502
lthumb 13.4207 41.4836
rfemur -15.2303 -1.44732 21.2742
rtibia 40.7872
rfoot 7.14934 -4.8199
rtoes 10.8759
lfemur -34.943 6.35971 -18.2469
ltibia 61.8935
lfoot 20.4063 -18.5493
ltoes -12.5001
730
root -3.1447 18.7799 -0.537444 0.857945 7.06356 -0.98611
lowerback 10.7645 1.40411 1.22965
upperback 3.00373 2.04465 1.27882
thorax -2.90527 1.0136 0.367418
lowerneck -21.2494 -2.92476 -11.3051
upperneck 28.25 -2.11552 6.4561
head 13.2526 -1.25458 4.10483
rclavicle -3.27001e-014 1.98785e-015
rhumerus -52.2439 11.1767 -88.6453
rradius 107.875
rwrist -2.654
rhand -26.3507 19.6483
rfingers 7.12502
rthumb 0.207027 -10.3314
lclavicle -3.27001e-014 1.98785e-015
lhumerus -39.1033 -2.47339 90.1208
lradius 103.987
lwrist 21.9835
lhand -13.0765 11.947
lfingers 7.12502
lthumb 13.0194 41.5207
rfemur -17.0682 -1.43466 20.2633
rtibia 43.3883
rfoot 9.05952 -5.67955
rtoes 11.3587
lfemur -32.3302 5.88938 -18.7978
ltibia 58.1289
lfoot 19.7524 -17.8862
ltoes -13.3661
731
root -3.10487 18.7999 -0.536406 0.894334 6.14154 -0.501775
lowerback 10.6947 1.30896 0.519286
upperback 3.0755 1.83943 1.27265
thorax -2.81484 0.913818 0.789441
lowerneck -21.7078 -2.81595 -11.2132
upperneck 27.983 -1.96399 6.54251
head 13.2176 -1.15721 4.14275
rclavicle -1.47101e-014 7.95139e-016
rhumerus -52.4293 11.9648 -88.7381
rradius 108.829
rwrist -2.16761
rhand -26.2065 19.4757
rfingers 7.12502
rthumb 0.346279 -10.5038
lclavicle -1.47101e-014 7.95139e-016
lhumerus -39.1032 -2.41186 89.7849
lradius 101.978
lwrist 22.4523
lhand -13.3744 11.8072
lfingers 7.12502
lthumb 12.7323 41.399
rfemur -19.0349 -1.3866 19.3898
rtibia 46.3808
rfoot 10.3637 -5.93943
rtoes 12.6027
lfemur -29.7475 5.30388 -19.2616
ltibia 54.4936
lfoot 19.143 -16.6297
ltoes -13.4043
732
root -3.06231 18.8052 -0.529595 1.01019 5.03667 0.0258094
lowerback 10.1092 1.27749 -0.18406
upperback 3.3643 1.71553 1.22622
thorax -2.21123 0.85196 1.1691
lowerneck -22.2324 -2.75728 -11.176
upperneck 27.5447 -1.86733 6.67474
head 13.1328 -1.07841 4.19313
rclavicle 8.94531e-016 -8.74653e-015
rhumerus -52.293 12.6598 -88.7319
rradius 109.85
rwrist -1.78245
rhand -25.8821 19.5306
rfingers 7.12502
rthumb 0.659647 -10.4482
lclavicle 8.94531e-016 -8.74653e-015
lhumerus -38.7988 -2.52339 89.4127
lradius 100.012
lwrist 23.139
lhand -13.2825 11.8421
lfingers 7.12502
lthumb 12.8208 41.4284
rfemur -21.2282 -1.27555 18.5056
rtibia 49.7745
rfoot 11.0324 -5.58493
rtoes 13.507
lfemur -27.2535 4.74182 -19.8077
ltibia 50.9809
lfoot 18.6515 -14.7514
ltoes -12.776
733
root -3.01898 18.7984 -0.522663 1.16403 3.9511 0.734596
lowerback 9.42503 1.19514 -0.7663
upperback 3.62172 1.54103 0.885733
thorax -1.57058 0.761041 1.18167
lowerneck -22.7333 -2.61835 -10.8183
upperneck 27.1348 -1.81023 6.89891
head 13.0543 -0.970945 4.22009
rclavicle 2.20651e-014 1.63003e-014
rhumerus -52.2451 13.132 -89.0928
rradius 110.975
rwrist -1.41547
rhand -25.5385 19.6719
rfingers 7.12502
rthumb 0.991445 -10.3055
lclavicle 2.20651e-014 1.63003e-014
lhumerus -38.6137 -3.04788 88.6269
lradius 98.2536
lwrist 24.0684
lhand -13.1337 11.9613
lfingers 7.12502
lthumb 12.9643 41.5385
rfemur -23.6035 -1.24656 17.4327
rtibia 53.4854
rfoot 10.5114 -5.12151
rtoes 12.2538
lfemur -24.8865 4.056 -20.5907
ltibia 47.5937
lfoot 18.0776 -12.8389
ltoes -13.7612
734
root -2.97649 18.7769 -0.521139 1.33617 2.95076 1.54561
lowerback 9.40139 1.11294 -1.64107
upperback 3.3937 1.34865 0.691711
thorax -1.80265 0.664184 1.49164
lowerneck -22.9865 -2.43593 -10.6494
upperneck 27.0914 -1.64025 7.06921
head 13.0662 -0.852457 4.28977
rclavicle -4.17448e-015 1.15295e-014
rhumerus -52.9583 13.659 -89.3882
rradius 112.295
rwrist -1.09185
rhand -25.2195 19.802
rfingers 7.12502
rthumb 1.29958 -10.1738
lclavicle -4.17448e-015 1.15295e-014
lhumerus -39.2968 -3.59028 88.1303
lradius 96.7823
lwrist 24.9165
lhand -13.0643 11.6435
lfingers 7.12502
lthumb 13.0312 41.2164
rfemur -26.0857 -1.28391 16.2439
rtibia 57.3853
rfoot 9.03475 -5.34492
rtoes 11.0854
lfemur -22.625 3.13974 -21.5089
ltibia 44.3593
lfoot 17.0944 -11.7628
ltoes -17.5382
735
root -2.93548 18.7433 -0.523172 1.4004 1.94353 2.44457
lowerback 9.41303 1.05433 -2.61346
upperback 3.23155 1.17614 0.50093
thorax -1.98387 0.5789 1.85867
lowerneck -23.1895 -2.29041 -10.5609
upperneck 27.0555 -1.50154 7.2483
head 13.0759 -0.755572 4.37135
rclavicle -6.4605e-015 2.26615e-014
rhumerus -53.475 14.0612 -89.5809
rradius 113.593
rwrist -0.676489
rhand -24.8046 19.928
rfingers 7.12502
rthumb 1.70032 -10.045
lclavicle -6.4605e-015 2.26615e-014
lhumerus -39.9004 -4.06677 87.7328
lradius 95.398
lwrist 25.5037
lhand -12.8837 11.0438
lfingers 7.12502
lthumb 13.2053 40.6056
rfemur -28.5309 -1.32088 14.9699
rtibia 61.3624
rfoot 7.49242 -5.95166
rtoes 9.00967
lfemur -20.2962 2.18713 -22.5622
ltibia 41.2643
lfoot 15.3967 -11.8124
ltoes -22.2252
736
root -2.89361 18.7019 -0.52724 1.3615 1.01926 3.0353
lowerback 9.49751 0.968346 -3.25285
upperback 3.09346 0.995862 0.411361
thorax -2.17182 0.492296 2.14393
lowerneck -23.242 -2.19838 -10.42
upperneck 26.8612 -1.41457 7.24337
head 12.9948 -0.699437 4.3526
rclavicle -6.55989e-015 0
rhumerus -53.9178 14.5183 -89.7098
rradius 114.795
rwrist -0.361869
rhand -24.66 20.2721
rfingers 7.12502
rthumb 1.83995 -9.6997
lclavicle -6.55989e-015 0
lhumerus -40.4703 -4.58374 87.3966
lradius 94.2095
lwrist 25.8073
lhand -12.7118 10.5793
lfingers 7.12502
lthumb 13.371 40.1302
rfemur -30.8822 -1.3465 14.0629
rtibia 65.2706
rfoot 6.08695 -6.34097
rtoes 5.64505
lfemur -17.9967 1.21435 -23.3333
ltibia 38.3347
lfoot 13.0265 -12.1637
ltoes -26.009
737
root -2.85326 18.6571 -0.528934 1.16563 0.399566 3.5352
lowerback 9.67787 0.771844 -3.83573
upperback 3.0188 0.671418 0.395944
thorax -2.33342 0.334289 2.49171
lowerneck -23.2122 -2.06837 -9.97342
upperneck 26.5167 -1.25769 6.79842
head 12.8246 -0.639003 4.1114
rclavicle 4.27387e-015 -5.96354e-015
rhumerus -54.2544 15.0711 -89.8035
rradius 116.055
rwrist -0.228403
rhand -24.657 20.4079
rfingers 7.12502
rthumb 1.8428 -9.56391
lclavicle 4.27387e-015 -5.96354e-015
lhumerus -41.0094 -5.14403 87.1269
lradius 93.2402
lwrist 25.894
lhand -12.8619 10.294
lfingers 7.12502
lthumb 13.2264 39.8544
rfemur -32.917 -1.53719 13.2623
rtibia 69.039
rfoot 4.85359 -6.41627
rtoes 4.25045
lfemur -15.6362 0.184923 -24.0447
ltibia 35.5898
lfoot 10.2688 -12.1445
ltoes -27.0909
738
root -2.81546 18.6046 -0.529297 0.808878 0.0133044 3.99719
lowerback 10.0136 0.501595 -4.38432
upperback 2.96107 0.242431 0.374911
thorax -2.54792 0.126616 2.82897
lowerneck -23.2413 -1.86547 -9.40951
upperneck 26.3973 -1.08459 6.48913
head 12.7572 -0.545086 3.91819
rclavicle -2.10712e-014 9.93923e-015
rhumerus -54.5235 15.5903 -89.9369
rradius 117.455
rwrist -0.0136759
rhand -24.8037 20.1022
rfingers 7.12502
rthumb 1.70113 -9.87074
lclavicle -2.10712e-014 9.93923e-015
lhumerus -41.5199 -5.76341 86.8498
lradius 92.3243
lwrist 25.7097
lhand -13.2784 10.0275
lfingers 7.12502
lthumb 12.8248 39.6135
rfemur -34.6693 -1.87122 12.4881
rtibia 72.6624
rfoot 4.03112 -6.42354
rtoes 5.4351
lfemur -13.1849 -0.71238 -24.7856
ltibia 33.0589
lfoot 7.21155 -11.6582
ltoes -25.8208
739
root -2.77892 18.5397 -0.534847 0.357401 -0.510593 4.30024
lowerback 10.5305 0.330126 -4.82508
upperback 2.90628 -0.0565662 0.422987
thorax -2.86329 -0.0127654 3.16647
lowerneck -23.3382 -1.71184 -9.0849
upperneck 26.4629 -1.01091 6.57136
head 12.7923 -0.46886 3.91152
rclavicle 4.96962e-016 1.11319e-014
rhumerus -54.7567 16.1846 -89.9519
rradius 118.706
rwrist 0.261216
rhand -25.0916 19.6504
rfingers 7.12502
rthumb 1.42313 -10.3246
lclavicle 4.96962e-016 1.11319e-014
lhumerus -42.0111 -6.44751 86.6876
lradius 91.4922
lwrist 25.3696
lhand -13.5271 9.67487
lfingers 7.12502
lthumb 12.585 39.2758
rfemur -36.3828 -2.01296 11.8893
rtibia 76.1316
rfoot 3.77277 -6.22465
rtoes 6.16324
lfemur -10.7648 -1.04594 -25.4455
ltibia 30.6695
lfoot 4.59037 -10.5084
ltoes -23.9412
740
root -2.74416 18.4671 -0.546256 -0.05174 -1.07944 4.53568
lowerback 11.0737 0.215169 -5.21623
upperback 2.87519 -0.280768 0.483045
thorax -3.17089 -0.114033 3.48372
lowerneck -23.3184 -1.61039 -8.80345
upperneck 26.3567 -1.00956 6.67687
head 12.7425 -0.423666 3.9011
rclavicle 8.44835e-015 -1.19271e-015
rhumerus -54.8648 16.615 -89.8746
rradius 119.826
rwrist 0.417243
rhand -25.2117 19.5083
rfingers 7.12502
rthumb 1.30712 -10.4674
lclavicle 8.44835e-015 -1.19271e-015
lhumerus -42.3634 -7.23234 86.5273
lradius 90.8064
lwrist 25.1021
lhand -13.4649 9.67457
lfingers 7.12502
lthumb 12.645 39.2718
rfemur -38.1695 -2.08174 11.3882
rtibia 79.4568
rfoot 4.1126 -5.96764
rtoes 6.37582
lfemur -8.61823 -1.18879 -26.0578
ltibia 28.381
lfoot 2.54947 -8.93995
ltoes -25.295
741
root -2.71091 18.3948 -0.549822 -0.330463 -1.51186 4.79948
lowerback 11.3355 0.0548313 -5.68237
upperback 2.84876 -0.560477 0.54586
thorax -3.30811 -0.24591 3.85465
lowerneck -23.05 -1.4871 -8.50161
upperneck 26.074 -0.987177 6.73839
head 12.5699 -0.373272 3.86362
rclavicle 1.25234e-014 1.59028e-015
rhumerus -54.8655 16.8208 -89.7443
rradius 120.944
rwrist 0.343783
rhand -25.16 19.6702
rfingers 7.12502
rthumb 1.35705 -10.3052
lclavicle 1.25234e-014 1.59028e-015
lhumerus -42.736 -8.01477 86.3769
lradius 90.3194
lwrist 25.0724
lhand -13.2906 9.73049
lfingers 7.12502
lthumb 12.8131 39.3173
rfemur -39.9371 -2.27541 10.8471
rtibia 82.6182
rfoot 4.80631 -5.80237
rtoes 6.73325
lfemur -6.82148 -1.36869 -26.6491
ltibia 26.2454
lfoot 0.436496 -7.64779
ltoes -24.9746
742
root -2.6789 18.3161 -0.546081 -0.466738 -1.97032 5.13576
lowerback 11.3171 -0.0943741 -6.25716
upperback 2.82971 -0.822413 0.586698
thorax -3.27863 -0.373244 4.25886
lowerneck -23.0026 -1.42114 -8.32934
upperneck 25.9076 -1.01883 6.92861
head 12.4958 -0.342501 3.89647
rclavicle -5.56597e-015 -1.59028e-015
rhumerus -54.6866 17.0996 -89.5323
rradius 121.939
rwrist 0.192845
rhand -25.244 19.5529
rfingers 7.12502
rthumb 1.27591 -10.423
lclavicle -5.56597e-015 -1.59028e-015
lhumerus -43.1388 -8.80226 86.2397
lradius 90.0255
lwrist 25.3629
lhand -13.119 9.46484
lfingers 7.12502
lthumb 12.9785 39.0412
rfemur -41.8376 -2.42292 10.206
rtibia 85.6472
rfoot 5.54197 -5.48158
rtoes 6.14631
lfemur -5.43959 -1.35372 -27.2944
ltibia 24.3733
lfoot -1.60223 -6.71213
ltoes -19.4323
